[Header]
FileType HTR
DataType HTRS
FileVersion 1
NumSegments 64
NumFrames 3
DataFrameRate 24
EulerRotationOrder ZYX
CalibrationUnits mm
RotationUnits Degrees
GlobalAxisofGravity Y
BoneLengthAxis Y
ScaleFactor 1.0
[SegmentNames&Hierarchy]
Hips	GLOBAL
Spine	Hips
Spine1	Spine
Spine2	Spine1
Neck	Spine2
Head	Neck
LeftEye	Head
RightEye	Head
LeftShoulder	Spine2
LeftArm	LeftShoulder
LeftForeArm	LeftArm
LeftHand	LeftForeArm
LeftHandThumb1	LeftHand
LeftHandThumb2	LeftHandThumb1
LeftHandThumb3	LeftHandThumb2
LeftHandThumb4	LeftHandThumb3
LeftHandIndex1	LeftHand
LeftHandIndex2	LeftHandIndex1
LeftHandIndex3	LeftHandIndex2
LeftHandIndex4	LeftHandIndex3
LeftHandMiddle1	LeftHand
LeftHandMiddle2	LeftHandMiddle1
LeftHandMiddle3	LeftHandMiddle2
LeftHandMiddle4	LeftHandMiddle3
LeftHandRing1	LeftHand
LeftHandRing2	LeftHandRing1
LeftHandRing3	LeftHandRing2
LeftHandRing4	LeftHandRing3
LeftHandPinky1	LeftHand
LeftHandPinky2	LeftHandPinky1
LeftHandPinky3	LeftHandPinky2
LeftHandPinky4	LeftHandPinky3
RightShoulder	Spine2
RightArm	RightShoulder
RightForeArm	RightArm
RightHand	RightForeArm
RightHandPinky1	RightHand
RightHandPinky2	RightHandPinky1
RightHandPinky3	RightHandPinky2
RightHandPinky4	RightHandPinky3
RightHandRing1	RightHand
RightHandRing2	RightHandRing1
RightHandRing3	RightHandRing2
RightHandRing4	RightHandRing3
RightHandMiddle1	RightHand
RightHandMiddle2	RightHandMiddle1
RightHandMiddle3	RightHandMiddle2
RightHandMiddle4	RightHandMiddle3
RightHandIndex1	RightHand
RightHandIndex2	RightHandIndex1
RightHandIndex3	RightHandIndex2
RightHandIndex4	RightHandIndex3
RightHandThumb1	RightHand
RightHandThumb2	RightHandThumb1
RightHandThumb3	RightHandThumb2
RightHandThumb4	RightHandThumb3
LeftUpLeg	Hips
LeftLeg	LeftUpLeg
LeftFoot	LeftLeg
LeftToeBase	LeftFoot
RightUpLeg	Hips
RightLeg	RightUpLeg
RightFoot	RightLeg
RightToeBase	RightFoot
[BasePosition]
Hips	0	0	0	0	0	0	1
Spine	0	0	0	0	0	0	1
Spine1	0	0	0	0	0	0	1
Spine2	0	0	0	0	0	0	1
Neck	0	0	0	0	0	0	1
Head	0	0	0	0	0	0	1
LeftEye	0	0	0	0	0	0	1
RightEye	0	0	0	0	0	0	1
LeftShoulder	0	0	0	0	0	0	1
LeftArm	0	0	0	0	0	0	1
LeftForeArm	0	0	0	0	0	0	1
LeftHand	0	0	0	0	0	0	1
LeftHandThumb1	0	0	0	0	0	0	1
LeftHandThumb2	0	0	0	0	0	0	1
LeftHandThumb3	0	0	0	0	0	0	1
LeftHandThumb4	0	0	0	0	0	0	1
LeftHandIndex1	0	0	0	0	0	0	1
LeftHandIndex2	0	0	0	0	0	0	1
LeftHandIndex3	0	0	0	0	0	0	1
LeftHandIndex4	0	0	0	0	0	0	1
LeftHandMiddle1	0	0	0	0	0	0	1
LeftHandMiddle2	0	0	0	0	0	0	1
LeftHandMiddle3	0	0	0	0	0	0	1
LeftHandMiddle4	0	0	0	0	0	0	1
LeftHandRing1	0	0	0	0	0	0	1
LeftHandRing2	0	0	0	0	0	0	1
LeftHandRing3	0	0	0	0	0	0	1
LeftHandRing4	0	0	0	0	0	0	1
LeftHandPinky1	0	0	0	0	0	0	1
LeftHandPinky2	0	0	0	0	0	0	1
LeftHandPinky3	0	0	0	0	0	0	1
LeftHandPinky4	0	0	0	0	0	0	1
RightShoulder	0	0	0	0	0	0	1
RightArm	0	0	0	0	0	0	1
RightForeArm	0	0	0	0	0	0	1
RightHand	0	0	0	0	0	0	1
RightHandPinky1	0	0	0	0	0	0	1
RightHandPinky2	0	0	0	0	0	0	1
RightHandPinky3	0	0	0	0	0	0	1
RightHandPinky4	0	0	0	0	0	0	1
RightHandRing1	0	0	0	0	0	0	1
RightHandRing2	0	0	0	0	0	0	1
RightHandRing3	0	0	0	0	0	0	1
RightHandRing4	0	0	0	0	0	0	1
RightHandMiddle1	0	0	0	0	0	0	1
RightHandMiddle2	0	0	0	0	0	0	1
RightHandMiddle3	0	0	0	0	0	0	1
RightHandMiddle4	0	0	0	0	0	0	1
RightHandIndex1	0	0	0	0	0	0	1
RightHandIndex2	0	0	0	0	0	0	1
RightHandIndex3	0	0	0	0	0	0	1
RightHandIndex4	0	0	0	0	0	0	1
RightHandThumb1	0	0	0	0	0	0	1
RightHandThumb2	0	0	0	0	0	0	1
RightHandThumb3	0	0	0	0	0	0	1
RightHandThumb4	0	0	0	0	0	0	1
LeftUpLeg	0	0	0	0	0	0	1
LeftLeg	0	0	0	0	0	0	1
LeftFoot	0	0	0	0	0	0	1
LeftToeBase	0	0	0	0	0	0	1
RightUpLeg	0	0	0	0	0	0	1
RightLeg	0	0	0	0	0	0	1
RightFoot	0	0	0	0	0	0	1
RightToeBase	0	0	0	0	0	0	1
[Hips]
19	-12.47172165	987.0756836	11.21905422	10.89037418	-53.4281044	-11.68955231	1.0
20	-12.70162392	987.736145	11.62581635	10.78301811	-53.3427124	-11.59930801	1.0
21	-12.92054558	988.401123	12.06423759	10.69167709	-53.27877045	-11.51666069	1.0
[Spine]
19	9.234152094e-05	101.8158798	1.31520927	2.864322901	6.677484989	3.250104904	1.0
20	9.234152094e-05	101.8158798	1.31520927	2.844448566	6.69131422	3.255054474	1.0
21	9.234152094e-05	101.8158798	1.31520927	2.821427584	6.699243069	3.252269983	1.0
[Spine1]
19	2.519402869e-06	100.8345108	-10.00804329	2.618232489	7.859873772	-0.1077720374	1.0
20	2.519402869e-06	100.8345108	-10.00804329	2.616070986	7.869321823	-0.09131789207	1.0
21	2.519402869e-06	100.8345108	-10.00804329	2.610315323	7.874116898	-0.07780829817	1.0
[Spine2]
19	3.4574864e-06	91.00010681	-13.73417091	2.676996946	7.861140251	-0.2914558649	1.0
20	3.4574864e-06	91.00010681	-13.73417091	2.677325726	7.867843628	-0.2718138993	1.0
21	3.4574864e-06	91.00010681	-13.73417091	2.67376852	7.870205402	-0.2553554177	1.0
[Neck]
19	6.334285445e-06	166.7166901	-25.16167831	11.47873116	7.560954571	-2.869392872	1.0
20	6.334285445e-06	166.7166901	-25.16167831	11.52831459	7.561224937	-2.877103329	1.0
21	6.334285445e-06	166.7166901	-25.16167831	11.57528591	7.56454277	-2.885931253	1.0
[Head]
19	-4.242318937e-06	96.17874908	16.85007477	2.264383316	19.86319733	8.73641777	1.0
20	-4.242318937e-06	96.17874908	16.85007477	2.296235085	19.80690002	8.757689476	1.0
21	-4.242318937e-06	96.17874908	16.85007477	2.339782238	19.77263451	8.76167202	1.0
[LeftEye]
19	30.67560577	64.09507751	92.83554077	0	0	0	1.0
20	30.67560577	64.09507751	92.83554077	0	0	0	1.0
21	30.67560577	64.09507751	92.83554077	0	0	0	1.0
[RightEye]
19	-30.67550468	64.09500122	92.83547211	0	0	0	1.0
20	-30.67550468	64.09500122	92.83547211	0	0	0	1.0
21	-30.67550468	64.09500122	92.83547211	0	0	0	1.0
[LeftShoulder]
19	45.70446396	109.4598465	-26.27988052	2.659850836	5.727507591	-12.40411091	1.0
20	45.70446396	109.4598465	-26.27988052	2.672430515	5.63958931	-12.33124256	1.0
21	45.70446396	109.4598465	-26.27988052	2.673494339	5.565333843	-12.23120594	1.0
[LeftArm]
19	105.9236984	-5.245829105	-22.32120132	-29.29435349	-56.23249817	-17.6206131	1.0
20	105.9236984	-5.245829105	-22.32120132	-29.31749344	-56.10476303	-17.40955353	1.0
21	105.9236984	-5.245829105	-22.32120132	-29.27391243	-55.99754333	-17.30258369	1.0
[LeftForeArm]
19	278.4151917	-0.0008942864952	0.0003745891154	-8.395348414e-05	-82.31490326	-0.0002110393252	1.0
20	278.4151917	-0.0008942864952	0.0003745891154	-6.666508853e-05	-82.16061401	-0.0001596740622	1.0
21	278.4151917	-0.0008942864952	0.0003745891154	-3.649989958e-05	-82.02972412	-0.0001083505995	1.0
[LeftHand]
19	283.2883911	-0.0001744071778	0.0003780452244	-47.52333832	46.86520386	1.540963054	1.0
20	283.2883911	-0.0001744071778	0.0003780452244	-47.77760696	46.38956451	1.799334049	1.0
21	283.2883911	-0.0001744071778	0.0003780452244	-48.00142288	45.97723007	2.021118641	1.0
[LeftHandThumb1]
19	24.66140366	-15.7504921	26.82413483	-12.29798794	13.35949898	9.401165009	1.0
20	24.66140366	-15.7504921	26.82413483	-12.29798794	13.35949898	9.401165009	1.0
21	24.66140366	-15.7504921	26.82413483	-12.29798794	13.35949898	9.401165009	1.0
[LeftHandThumb2]
19	32.29803848	-18.6469059	18.64681244	-0.2483453304	-4.311873436	13.28869915	1.0
20	32.29803848	-18.6469059	18.64681244	-0.2483453304	-4.311873436	13.28869915	1.0
21	32.29803848	-18.6469059	18.64681244	-0.2483453304	-4.311873436	13.28869915	1.0
[LeftHandThumb3]
19	26.52565002	-15.31492996	15.31471634	-9.976514816	-23.52258492	0.1755283028	1.0
20	26.52565002	-15.31492996	15.31471634	-9.976514816	-23.52258492	0.1755283028	1.0
21	26.52565002	-15.31492996	15.31471634	-9.976514816	-23.52258492	0.1755283028	1.0
[LeftHandThumb4]
19	19.54566956	-11.2850008	11.28492165	0	0	0	1.0
20	19.54566956	-11.2850008	11.28492165	0	0	0	1.0
21	19.54566956	-11.2850008	11.28492165	0	0	0	1.0
[LeftHandIndex1]
19	91.09301758	-5.170834064	22.6007309	-2.034207106	1.761208534	-31.54689026	1.0
20	91.09301758	-5.170834064	22.6007309	-2.034207106	1.761208534	-31.54689026	1.0
21	91.09301758	-5.170834064	22.6007309	-2.034207106	1.761208534	-31.54689026	1.0
[LeftHandIndex2]
19	36.76409531	-6.939138257e-05	0.0002924251603	-3.082290649	5.140966415	-61.86808395	1.0
20	36.76409531	-6.939138257e-05	0.0002924251603	-3.082290649	5.140966415	-61.86808395	1.0
21	36.76409531	-6.939138257e-05	0.0002924251603	-3.082290649	5.140966415	-61.86808395	1.0
[LeftHandIndex3]
19	28.83062553	0.000385119667	-0.0004276481632	-0.5015913248	2.368166685	-23.91410255	1.0
20	28.83062553	0.000385119667	-0.0004276481632	-0.5015913248	2.368166685	-23.91410255	1.0
21	28.83062553	0.000385119667	-0.0004276481632	-0.5015913248	2.368166685	-23.91410255	1.0
[LeftHandIndex4]
19	23.92720032	0.0003702590766	0.0003355443478	0	0	0	1.0
20	23.92720032	0.0003702590766	0.0003355443478	0	0	0	1.0
21	23.92720032	0.0003702590766	0.0003355443478	0	0	0	1.0
[LeftHandMiddle1]
19	95.33401489	-0.000339240476	0.0001393702551	-2.959770441	-0.3316034675	-41.48937225	1.0
20	95.33401489	-0.000339240476	0.0001393702551	-2.959770441	-0.3316034675	-41.48937225	1.0
21	95.33401489	-0.000339240476	0.0001393702551	-2.959770441	-0.3316034675	-41.48937225	1.0
[LeftHandMiddle2]
19	36.98236847	1.961359158e-05	0.0001791696704	-2.939359903	5.06229353	-60.2610817	1.0
20	36.98236847	1.961359158e-05	0.0001791696704	-2.939359903	5.06229353	-60.2610817	1.0
21	36.98236847	1.961359158e-05	0.0001791696704	-2.939359903	5.06229353	-60.2610817	1.0
[LeftHandMiddle3]
19	29.50921631	-0.0003937608562	0.0001644795993	-1.315997601	3.691623449	-39.22911072	1.0
20	29.50921631	-0.0003937608562	0.0001644795993	-1.315997601	3.691623449	-39.22911072	1.0
21	29.50921631	-0.0003937608562	0.0001644795993	-1.315997601	3.691623449	-39.22911072	1.0
[LeftHandMiddle4]
19	28.3390255	-0.0003893481917	-9.504223272e-05	0	0	0	1.0
20	28.3390255	-0.0003893481917	-9.504223272e-05	0	0	0	1.0
21	28.3390255	-0.0003893481917	-9.504223272e-05	0	0	0	1.0
[LeftHandRing1]
19	91.04527283	-0.4393950403	-18.65084648	-3.775710106	-4.751326084	-49.6909523	1.0
20	91.04527283	-0.4393950403	-18.65084648	-3.775710106	-4.751326084	-49.6909523	1.0
21	91.04527283	-0.4393950403	-18.65084648	-3.775710106	-4.751326084	-49.6909523	1.0
[LeftHandRing2]
19	31.54026794	-6.55346812e-05	0.000104257444	-3.032872438	5.114353657	-61.31506729	1.0
20	31.54026794	-6.55346812e-05	0.000104257444	-3.032872438	5.114353657	-61.31506729	1.0
21	31.54026794	-6.55346812e-05	0.000104257444	-3.032872438	5.114353657	-61.31506729	1.0
[LeftHandRing3]
19	29.37672424	-0.0004545861739	-6.864757597e-05	-0.350160718	1.992284179	-19.93597984	1.0
20	29.37672424	-0.0004545861739	-6.864757597e-05	-0.350160718	1.992284179	-19.93597984	1.0
21	29.37672424	-0.0004545861739	-6.864757597e-05	-0.350160718	1.992284179	-19.93597984	1.0
[LeftHandRing4]
19	26.47452545	-0.0004980441299	7.070515267e-07	0	0	0	1.0
20	26.47452545	-0.0004980441299	7.070515267e-07	0	0	0	1.0
21	26.47452545	-0.0004980441299	7.070515267e-07	0	0	0	1.0
[LeftHandPinky1]
19	80.77777863	-4.886682034	-38.06066895	-2.494308233	-10.25931644	-37.81870651	1.0
20	80.77777863	-4.886682034	-38.06066895	-2.494308233	-10.25931644	-37.81870651	1.0
21	80.77777863	-4.886682034	-38.06066895	-2.494308233	-10.25931644	-37.81870651	1.0
[LeftHandPinky2]
19	36.00034332	-2.252215199e-05	-0.0002623879409	-2.836258411	5.002195358	-59.08558273	1.0
20	36.00034332	-2.252215199e-05	-0.0002623879409	-2.836258411	5.002195358	-59.08558273	1.0
21	36.00034332	-2.252215199e-05	-0.0002623879409	-2.836258411	5.002195358	-59.08558273	1.0
[LeftHandPinky3]
19	21.14211655	0.0001953828178	-2.864415183e-05	-0.872974813	3.07111001	-31.72867775	1.0
20	21.14211655	0.0001953828178	-2.864415183e-05	-0.872974813	3.07111001	-31.72867775	1.0
21	21.14211655	0.0001953828178	-2.864415183e-05	-0.872974813	3.07111001	-31.72867775	1.0
[LeftHandPinky4]
19	19.7568264	0.0001240565616	-0.0004430140834	0	0	0	1.0
20	19.7568264	0.0001240565616	-0.0004430140834	0	0	0	1.0
21	19.7568264	0.0001240565616	-0.0004430140834	0	0	0	1.0
[RightShoulder]
19	-45.69969559	109.4617615	-26.28017426	-14.80202198	1.110569835	-4.725687027	1.0
20	-45.69969559	109.4617615	-26.28017426	-14.84089756	0.9975864291	-4.88727951	1.0
21	-45.69969559	109.4617615	-26.28017426	-14.87437534	0.8921566606	-5.024216652	1.0
[RightArm]
19	-105.9284363	-5.247983932	-22.32098579	-62.76031494	118.928009	-17.40332031	1.0
20	-105.9284363	-5.247983932	-22.32098579	-62.26118851	119.0376434	-16.92619896	1.0
21	-105.9284363	-5.247983932	-22.32098579	-61.85269165	119.1142883	-16.57130432	1.0
[RightForeArm]
19	-278.4151917	-0.0003307921579	0.0001167631053	-3.951776307e-06	29.23817635	5.322032848e-06	1.0
20	-278.4151917	-0.0003307921579	0.0001167631053	1.012733037e-06	28.82382774	5.097851954e-06	1.0
21	-278.4151917	-0.0003307921579	0.0001167631053	5.431881164e-06	28.51707649	3.565901352e-06	1.0
[RightHand]
19	-283.2883911	-1.581417109e-06	0.000558160129	-42.90999603	-28.69091606	-16.0809803	1.0
20	-283.2883911	-1.581417109e-06	0.000558160129	-42.89890289	-28.27858353	-16.33305931	1.0
21	-283.2883911	-1.581417109e-06	0.000558160129	-42.9215889	-27.96549797	-16.5530262	1.0
[RightHandPinky1]
19	-80.76674652	-4.88459301	-38.06010437	-4.179559231	-3.048670053	59.07947159	1.0
20	-80.76674652	-4.88459301	-38.06010437	-4.179559231	-3.048670053	59.07947159	1.0
21	-80.76674652	-4.88459301	-38.06010437	-4.179559231	-3.048670053	59.07947159	1.0
[RightHandPinky2]
19	-36.00034332	0.0003967665543	0.0005081442068	-3.174546003	-4.396142006	71.67469025	1.0
20	-36.00034332	0.0003967665543	0.0005081442068	-3.174546003	-4.396142006	71.67469025	1.0
21	-36.00034332	0.0003967665543	0.0005081442068	-3.174546003	-4.396142006	71.67469025	1.0
[RightHandPinky3]
19	-21.14211655	0.0001513792522	0.0001479376951	-1.761317968	-3.635984421	51.6805954	1.0
20	-21.14211655	0.0001513792522	0.0001479376951	-1.761317968	-3.635984421	51.6805954	1.0
21	-21.14211655	0.0001513792522	0.0001479376951	-1.761317968	-3.635984421	51.6805954	1.0
[RightHandPinky4]
19	-19.7568264	-0.000185219571	-9.839841368e-06	0	0	0	1.0
20	-19.7568264	-0.000185219571	-9.839841368e-06	0	0	0	1.0
21	-19.7568264	-0.000185219571	-9.839841368e-06	0	0	0	1.0
[RightHandRing1]
19	-91.03588104	-0.4391434789	-18.65072441	-4.049632549	-6.933060169	57.63954544	1.0
20	-91.03588104	-0.4391434789	-18.65072441	-4.049632549	-6.933060169	57.63954544	1.0
21	-91.03588104	-0.4391434789	-18.65072441	-4.049632549	-6.933060169	57.63954544	1.0
[RightHandRing2]
19	-31.54026794	0.0002399729856	0.0004885121016	-5.297682285	-4.582300186	98.2931366	1.0
20	-31.54026794	0.0002399729856	0.0004885121016	-5.297682285	-4.582300186	98.2931366	1.0
21	-31.54026794	0.0002399729856	0.0004885121016	-5.297682285	-4.582300186	98.2931366	1.0
[RightHandRing3]
19	-29.37672424	-0.0004160065437	-0.0003966063377	-1.618076921	-3.518265247	49.38505554	1.0
20	-29.37672424	-0.0004160065437	-0.0003966063377	-1.618076921	-3.518265247	49.38505554	1.0
21	-29.37672424	-0.0004160065437	-0.0003966063377	-1.618076921	-3.518265247	49.38505554	1.0
[RightHandRing4]
19	-26.47452545	0.0002460821415	-2.294923434e-05	0	0	0	1.0
20	-26.47452545	0.0002460821415	-2.294923434e-05	0	0	0	1.0
21	-26.47452545	0.0002460821415	-2.294923434e-05	0	0	0	1.0
[RightHandMiddle1]
19	-95.32502747	-0.0001631230261	0.0001679184206	-3.53036809	-16.46828079	52.07723618	1.0
20	-95.32502747	-0.0001631230261	0.0001679184206	-3.53036809	-16.46828079	52.07723618	1.0
21	-95.32502747	-0.0001631230261	0.0001679184206	-3.53036809	-16.46828079	52.07723618	1.0
[RightHandMiddle2]
19	-36.98236847	0.000150669599	-0.0002254552383	-6.350979805	-4.299677372	111.8329315	1.0
20	-36.98236847	0.000150669599	-0.0002254552383	-6.350979805	-4.299677372	111.8329315	1.0
21	-36.98236847	0.000150669599	-0.0002254552383	-6.350979805	-4.299677372	111.8329315	1.0
[RightHandMiddle3]
19	-29.50921631	-3.113244929e-06	-3.03402544e-06	-0.2459617406	-1.492588997	18.73979759	1.0
20	-29.50921631	-3.113244929e-06	-3.03402544e-06	-0.2459617406	-1.492588997	18.73979759	1.0
21	-29.50921631	-3.113244929e-06	-3.03402544e-06	-0.2459617406	-1.492588997	18.73979759	1.0
[RightHandMiddle4]
19	-28.3390255	8.05324089e-05	0.0005378770875	0	0	0	1.0
20	-28.3390255	8.05324089e-05	0.0005378770875	0	0	0	1.0
21	-28.3390255	8.05324089e-05	0.0005378770875	0	0	0	1.0
[RightHandIndex1]
19	-91.08280945	-5.167889595	22.60116386	-1.387360573	-4.207729816	25.46813583	1.0
20	-91.08280945	-5.167889595	22.60116386	-1.387360573	-4.207729816	25.46813583	1.0
21	-91.08280945	-5.167889595	22.60116386	-1.387360573	-4.207729816	25.46813583	1.0
[RightHandIndex2]
19	-36.76409531	0.0001922715601	0.0003235567128	-1.643622756	-3.539990187	49.80016327	1.0
20	-36.76409531	0.0001922715601	0.0003235567128	-1.643622756	-3.539990187	49.80016327	1.0
21	-36.76409531	0.0001922715601	0.0003235567128	-1.643622756	-3.539990187	49.80016327	1.0
[RightHandIndex3]
19	-28.83062553	-0.0004960121587	0.0004044897505	-1.727792621	-3.609309912	51.15027237	1.0
20	-28.83062553	-0.0004960121587	0.0004044897505	-1.727792621	-3.609309912	51.15027237	1.0
21	-28.83062553	-0.0004960121587	0.0004044897505	-1.727792621	-3.609309912	51.15027237	1.0
[RightHandIndex4]
19	-23.92720032	0.0002681470069	0.0002802013478	0	0	0	1.0
20	-23.92720032	0.0002681470069	0.0002802013478	0	0	0	1.0
21	-23.92720032	0.0002681470069	0.0002802013478	0	0	0	1.0
[RightHandThumb1]
19	-24.64805984	-15.72714233	26.82626534	7.322416306	-6.350176334	10.24958611	1.0
20	-24.64805984	-15.72714233	26.82626534	7.322416306	-6.350176334	10.24958611	1.0
21	-24.64805984	-15.72714233	26.82626534	7.322416306	-6.350176334	10.24958611	1.0
[RightHandThumb2]
19	-32.29771805	-18.6470871	18.64718437	26.54580307	-9.159310341	-24.03568459	1.0
20	-32.29771805	-18.6470871	18.64718437	26.54580307	-9.159310341	-24.03568459	1.0
21	-32.29771805	-18.6470871	18.64718437	26.54580307	-9.159310341	-24.03568459	1.0
[RightHandThumb3]
19	-26.52605057	-15.31449318	15.31445599	31.8479023	-40.59857559	-44.24287415	1.0
20	-26.52605057	-15.31449318	15.31445599	31.8479023	-40.59857559	-44.24287415	1.0
21	-26.52605057	-15.31449318	15.31445599	31.8479023	-40.59857559	-44.24287415	1.0
[RightHandThumb4]
19	-19.54580498	-11.28461742	11.28507042	0	0	0	1.0
20	-19.54580498	-11.28461742	11.28507042	0	0	0	1.0
21	-19.54580498	-11.28461742	11.28507042	0	0	0	1.0
[LeftUpLeg]
19	82.07781982	-67.51714325	-15.99555588	-27.15825462	18.87927246	15.84098721	1.0
20	82.07781982	-67.51714325	-15.99555588	-26.98626328	18.81917191	15.78341103	1.0
21	82.07781982	-67.51714325	-15.99555588	-26.81637383	18.75765991	15.72997856	1.0
[LeftLeg]
19	-4.110157988e-06	-443.7047119	2.846426487	27.00235748	8.498174667	4.949217796	1.0
20	-4.110157988e-06	-443.7047119	2.846426487	26.73400879	8.518306732	4.904935837	1.0
21	-4.110157988e-06	-443.7047119	2.846426487	26.46994972	8.552954674	4.865732193	1.0
[LeftFoot]
19	4.716393505e-06	-444.278717	-29.82190704	3.531817436	6.586110592	-8.594287872	1.0
20	4.716393505e-06	-444.278717	-29.82190704	3.608932972	6.565682411	-8.54429245	1.0
21	4.716393505e-06	-444.278717	-29.82190704	3.6894207	6.552287579	-8.494505882	1.0
[LeftToeBase]
19	-2.960988058e-05	-87.28669739	107.1055984	1.342095857e-07	-3.222650776e-06	-1.754975301e-06	1.0
20	-2.960988058e-05	-87.28669739	107.1055984	1.342095857e-07	-3.222650776e-06	-1.754975301e-06	1.0
21	-2.960988058e-05	-87.28669739	107.1055984	1.342095857e-07	-3.222650776e-06	-1.754975301e-06	1.0
[RightUpLeg]
19	-82.07795715	-67.51662445	-15.99559402	-12.98908806	-15.22768307	-5.473101616	1.0
20	-82.07795715	-67.51662445	-15.99559402	-12.73620033	-15.26667309	-5.538982391	1.0
21	-82.07795715	-67.51662445	-15.99559402	-12.48764324	-15.29771423	-5.600497246	1.0
[RightLeg]
19	8.435572454e-07	-443.7053833	2.861563921	22.19036674	8.16859436	2.39183116	1.0
20	8.435572454e-07	-443.7053833	2.861563921	21.84923172	8.173801422	2.341286421	1.0
21	8.435572454e-07	-443.7053833	2.861563921	21.48581314	8.181611061	2.282582521	1.0
[RightFoot]
19	9.644581951e-06	-444.2773132	-29.83789063	-9.036563873	-8.986657143	13.5232954	1.0
20	9.644581951e-06	-444.2773132	-29.83789063	-8.882283211	-9.045723915	13.5517025	1.0
21	9.644581951e-06	-444.2773132	-29.83789063	-8.716633797	-9.09223938	13.58433151	1.0
[RightToeBase]
19	-2.360438157e-05	-87.28668976	107.1056061	-2.270344567e-06	3.233250936e-06	2.690227348e-06	1.0
20	-2.360438157e-05	-87.28668976	107.1056061	-2.270344567e-06	3.233250936e-06	2.690227348e-06	1.0
21	-2.360438157e-05	-87.28668976	107.1056061	-2.270344567e-06	3.233250936e-06	2.690227348e-06	1.0
[EndOfFile]
